<?xml version="1.0" encoding="UTF-8" standalone="no"?>
<!-- Created with Inkscape (http://www.inkscape.org/) -->

<svg
   version="1.1"
   id="svg59"
   width="517.36597"
   height="172.47662"
   viewBox="0 0 517.36596 172.47663"
   sodipodi:docname="Politechnika_Warszawska.png"
   inkscape:export-filename="Politechnika_Warszawska.svg"
   inkscape:export-xdpi="96"
   inkscape:export-ydpi="96"
   xmlns:inkscape="http://www.inkscape.org/namespaces/inkscape"
   xmlns:sodipodi="http://sodipodi.sourceforge.net/DTD/sodipodi-0.dtd"
   xmlns="http://www.w3.org/2000/svg"
   xmlns:svg="http://www.w3.org/2000/svg">
  <defs
     id="defs63" />
  <sodipodi:namedview
     id="namedview61"
     pagecolor="#ffffff"
     bordercolor="#000000"
     borderopacity="0.25"
     inkscape:showpageshadow="2"
     inkscape:pageopacity="0.0"
     inkscape:pagecheckerboard="0"
     inkscape:deskcolor="#d1d1d1"
     showgrid="false" />
  <g
     inkscape:groupmode="layer"
     inkscape:label="Image"
     id="g65"
     transform="translate(-10.450816,321.37157)">
    <path
       style="fill:#ffffff;fill-opacity:1;stroke-width:0.32"
       d="m 53.028594,-181.13303 c -7.429517,-17.7312 -13.600923,-32.49055 -13.714238,-32.79855 -0.192441,-0.52307 0.279296,-0.56 7.153972,-0.56 6.71242,0 7.379351,0.0493 7.579904,0.56 0.120948,0.308 2.882106,7.82621 6.135911,16.70714 3.253801,8.88093 6.028781,16.34866 6.166614,16.59496 0.164941,0.29473 0.705056,-0.79474 1.580042,-3.18715 0.73119,-1.99922 3.528227,-9.68295 6.215641,-17.07495 l 4.886205,-13.44 7.422455,-0.0859 7.422457,-0.0859 -1.05247,2.48587 c -0.578855,1.36729 -6.658525,16.12906 -13.510375,32.804 -6.851852,16.67493 -12.52991,30.31828 -12.61791,30.31855 -0.088,2.7e-4 -6.238694,-14.50686 -13.668208,-32.23807 z m 55.259256,31.94231 c -4.52728,-0.61779 -9.155576,-3.15207 -11.827726,-6.4764 -1.633725,-2.03246 -3.635098,-6.08159 -4.322148,-8.74446 -0.840838,-3.25892 -1.156288,-7.58512 -0.78934,-10.82539 0.748188,-6.60681 2.615779,-10.91244 6.353494,-14.64765 3.81487,-3.81231 7.72653,-5.40696 13.26319,-5.40696 4.51554,0 8.21562,1.34828 10.98674,4.00348 0.82238,0.78798 1.52952,1.39755 1.57141,1.3546 0.0419,-0.0429 0.19704,-1.08608 0.34475,-2.31808 l 0.26858,-2.24 5.84,-0.0872 5.84,-0.0872 v 22.4144 22.41444 l -5.84,-0.0872 -5.84,-0.0872 -0.27078,-2.32398 -0.27078,-2.32398 -1.72997,1.5811 c -3.36948,3.07952 -8.5757,4.57025 -13.57742,3.88772 z m 10.2364,-12.36402 c 0.98416,-0.53514 2.24811,-1.60092 2.94774,-2.48558 l 1.22481,-1.54873 v -6.57995 -6.57995 l -1.01284,-1.31936 c -2.25169,-2.93312 -5.21527,-4.26619 -8.67931,-3.90413 -3.89835,0.40746 -6.64714,2.83858 -7.9482,7.02966 -0.56947,1.83441 -0.65637,2.74973 -0.53675,5.65308 0.12766,3.09846 0.25156,3.68533 1.17336,5.55776 1.86389,3.78611 4.52195,5.37895 8.696,5.21106 1.94525,-0.0782 2.74582,-0.27839 4.13519,-1.03386 z m 73.77654,12.32195 c -4.51331,-0.49788 -10.3021,-2.4981 -12.58898,-4.34989 l -0.74304,-0.60168 2.45314,-4.55361 c 1.34922,-2.50449 2.52164,-4.55361 2.60536,-4.55361 0.0837,0 0.61062,0.34389 1.17088,0.7642 2.93854,2.20454 6.74743,3.41665 10.82806,3.44582 3.21774,0.023 4.80352,-0.40955 5.70559,-1.55634 0.70597,-0.8975 0.86644,-2.92198 0.31351,-3.95515 -0.48544,-0.90705 -2.91464,-2.02515 -6.54048,-3.01042 -9.27085,-2.51921 -12.85785,-4.90215 -14.2859,-9.49048 -1.4629,-4.70031 -0.0807,-10.07941 3.44727,-13.41605 3.32166,-3.14149 8.39183,-4.7851 14.73711,-4.77738 5.53861,0.007 12.237,1.77015 14.92983,3.9304 l 0.91635,0.73511 -2.37078,4.52165 -2.37078,4.52164 -1.58557,-0.99214 c -4.80241,-3.00503 -12.08701,-3.6885 -14.42234,-1.35317 -0.55568,0.55568 -0.76322,1.1194 -0.76322,2.07304 0,1.83291 1.03545,2.69376 4.45361,3.70259 10.29621,3.03883 12.78962,4.24671 15.11747,7.32335 4.03822,5.33716 2.23229,14.28106 -3.67537,18.20234 -4.25787,2.82621 -10.81501,4.10868 -17.33172,3.38978 z m 91.21113,-0.006 c -3.85611,-0.57858 -6.9496,-2.04804 -9.7293,-4.62155 -4.9339,-4.56793 -7.34781,-11.3595 -6.99164,-19.67107 0.30186,-7.044 2.37354,-12.31726 6.46582,-16.45813 3.58469,-3.62724 7.67818,-5.30187 12.96,-5.30187 4.68782,0 8.08773,1.19747 11.02696,3.88376 1.93372,1.76731 1.88577,1.79736 2.25074,-1.41089 l 0.21013,-1.84712 5.81609,0.0871 5.81608,0.0871 0.0822,22.32 0.0822,22.32 h -5.90257 -5.90256 l -0.2002,-1.52 c -0.11011,-0.836 -0.2773,-1.92934 -0.37154,-2.42965 l -0.17136,-0.90966 -0.84806,0.97928 c -2.91324,3.36399 -9.2052,5.30106 -14.59294,4.49266 z m 9.19012,-11.67666 c 1.66359,-0.56684 4.02114,-2.49591 5.01439,-4.103 0.60834,-0.98448 0.66037,-1.56269 0.66037,-7.33891 v -6.27025 l -1.36,-1.65877 c -2.64376,-3.22457 -6.45708,-4.46195 -10.30414,-3.34358 -4.93971,1.43602 -7.78038,7.63634 -6.60111,14.40822 0.76929,4.41764 3.14545,7.41679 6.74318,8.51117 1.38628,0.42169 4.30872,0.31921 5.84731,-0.20504 z m 46.36932,9.46404 c -0.69878,-1.496 -5.47402,-11.648 -10.61159,-22.56 -5.13757,-10.912 -9.41646,-20.0228 -9.50863,-20.24622 -0.13311,-0.32265 1.30261,-0.38848 6.97914,-0.32 l 7.14671,0.0862 4.07962,10.4 c 2.24377,5.72 4.14054,10.544 4.21504,10.72 0.0745,0.176 2.55043,-4.576 5.50211,-10.56 l 5.36672,-10.88 5.35437,10.88 c 5.19267,10.55143 5.36557,10.85101 5.72579,9.92 0.20429,-0.528 2.12752,-5.352 4.27379,-10.72 l 3.90237,-9.76 6.96,-0.0862 c 5.08291,-0.063 6.96,0.013 6.96,0.28185 0,0.3853 -20.73693,44.72975 -21.13094,45.187 -0.12445,0.14444 -2.81578,-4.58286 -5.98068,-10.50511 -3.16492,-5.92224 -5.88236,-10.77501 -6.03878,-10.78392 -0.15638,-0.009 -2.70445,4.50238 -5.66237,10.0251 -2.95789,5.52273 -5.57693,10.40132 -5.82006,10.84132 -0.43501,0.78726 -0.46231,0.75667 -1.71261,-1.92 z m 63.14944,2.20585 c -4.4729,-0.47077 -10.29002,-2.47536 -12.59158,-4.33907 l -0.74567,-0.60379 2.30647,-4.3115 c 1.26857,-2.37132 2.42035,-4.43611 2.55955,-4.58842 0.1392,-0.15231 0.73328,0.0836 1.32016,0.5242 3.05478,2.29347 6.82086,3.49091 10.97936,3.49091 3.22195,0 4.89808,-0.5137 5.77878,-1.7711 0.5433,-0.77567 0.6193,-2.8482 0.13744,-3.74855 -0.48544,-0.90705 -2.91462,-2.02515 -6.54048,-3.01042 -10.72925,-2.91551 -14.29792,-5.8589 -14.79523,-12.20288 -0.58589,-7.47355 4.37622,-13.29589 12.7737,-14.98817 3.36128,-0.67737 8.68412,-0.63094 12.25916,0.10694 3.20708,0.66193 7.18797,2.20533 8.59069,3.3306 l 0.91632,0.73511 -2.37827,4.53594 c -2.32554,4.43539 -2.39354,4.52525 -3.06726,4.05335 -4.1008,-2.87231 -10.83274,-4.17599 -14.04132,-2.71918 -1.53955,0.69901 -2.02582,1.43219 -2.02582,3.05442 0,1.66324 1.13878,2.57075 4.4536,3.54908 10.29622,3.03883 12.78963,4.24671 15.11747,7.32335 2.96016,3.91233 2.87453,10.27383 -0.19837,14.73553 -2.67721,3.88719 -7.3336,6.18687 -13.88662,6.85827 -1.82262,0.18674 -3.55062,0.32037 -3.84,0.29696 -0.28934,-0.0234 -1.67629,-0.16362 -3.08208,-0.31158 z m 97.9311,0.007 c -7.79328,-1.16935 -13.43712,-6.54882 -15.91817,-15.17262 -0.63226,-2.19761 -0.73607,-3.2848 -0.73325,-7.68 0.004,-6.02551 0.41866,-8.02588 2.61334,-12.60405 3.25245,-6.78465 9.27482,-10.59596 16.74298,-10.59596 4.61338,0 8.31917,1.3363 11.21341,4.04352 l 1.52845,1.42967 0.16848,-0.89659 c 0.0927,-0.49313 0.25859,-1.5806 0.36867,-2.4166 l 0.20019,-1.52 h 5.74042 5.74038 v 22.4 22.4 h -5.73456 -5.73459 l -0.16483,-0.88 c -0.0907,-0.484 -0.25661,-1.57526 -0.3688,-2.42503 l -0.20394,-1.54504 -1.15456,1.18882 c -3.28874,3.38629 -8.94845,5.0774 -14.30362,4.27388 z m 9.19015,-11.67666 c 1.66358,-0.56683 4.02115,-2.4959 5.01437,-4.10299 0.60713,-0.98238 0.66038,-1.56383 0.66038,-7.21309 v -6.14457 l -0.96877,-1.40806 c -2.44406,-3.55231 -6.58397,-5.04085 -10.69536,-3.84563 -2.4624,0.71584 -4.87187,3.0577 -5.95536,5.78829 -0.64713,1.63087 -0.75888,2.47143 -0.76435,5.75009 -0.006,3.53312 0.0645,3.99235 0.88147,5.7465 1.31383,2.82116 2.23498,3.84992 4.42903,4.94629 2.30128,1.14997 4.93654,1.32207 7.39859,0.48317 z m -479.269721,-4.22723 c -3.335461,-8.39802 -9.114808,-22.93713 -12.842993,-32.30913 l -6.77852,-17.04 h 7.104615 7.104614 l 10.619561,27.12 c 5.840758,14.916 11.54014,29.46 12.665295,32.32 l 2.045738,5.2 -6.926919,-0.0109 -6.926918,-0.0109 z m 118.302291,-7.02913 0.0822,-22.32 h 5.76 5.76 l 0.26126,2.08 c 0.4793,3.81592 0.3192,3.70265 2.29926,1.62676 0.96817,-1.01503 2.45491,-2.22354 3.30385,-2.6856 1.80962,-0.98492 4.8048,-1.82116 6.52286,-1.82116 h 1.21277 v 6.35359 6.35359 l -2.30196,0.19298 c -2.98995,0.25067 -5.79544,1.61116 -8.12383,3.93955 l -1.73421,1.7342 v 13.43305 13.43304 h -6.56218 -6.56217 z m 73.61647,21.92 c 0.0895,-0.22 4.26852,-7.744 9.28666,-16.72 l 9.12391,-16.32 -8.61243,-0.0851 -8.61243,-0.0851 v -5.59494 -5.59486 h 18.4 c 14.50689,0 18.39991,0.0846 18.39958,0.4 -2.2e-4,0.22 -4.09892,7.744 -9.10821,16.72 l -9.10781,16.32 9.10822,0.0849 9.10822,0.0849 v 5.5951 5.59509 h -19.07424 c -15.13286,0 -19.0406,-0.0827 -18.91147,-0.4 z m 213.34571,-33.04 v -33.44 h 6.56 6.56 v 22.78857 c 0,19.55135 0.0637,22.72201 0.44835,22.32 0.24659,-0.25771 3.65104,-5.36457 7.56544,-11.34857 3.9144,-5.984 7.28455,-11.06277 7.48925,-11.28617 0.28438,-0.31038 2.08275,-0.38585 7.62582,-0.32 l 7.25367,0.0862 -6.71127,9.10937 c -3.6912,5.01015 -6.71033,9.18615 -6.70921,9.28 0,0.0939 3.30931,6.00263 7.35152,13.13063 l 7.34944,12.96 -7.27127,0.0862 c -6.29715,0.0747 -7.32035,0.0191 -7.63776,-0.41504 -0.2016,-0.27568 -2.20022,-3.67274 -4.44144,-7.54902 -2.24121,-3.87628 -4.17635,-6.92952 -4.30035,-6.78497 -0.124,0.14455 -2.58947,3.53874 -5.47881,7.54265 l -5.25338,7.27983 -5.2,1.7e-4 -5.2,1.7e-4 z M 87.989256,-253.86607 c -5.39342,-0.84645 -9.495798,-2.88665 -13.140332,-6.53497 -2.838282,-2.84122 -4.39097,-5.44169 -5.642727,-9.45054 -0.632009,-2.02406 -0.748579,-3.07669 -0.744189,-6.72 0.0061,-5.06436 0.459588,-7.13647 2.451152,-11.2 1.879949,-3.8358 5.69064,-7.63523 9.543642,-9.51545 4.232755,-2.06553 6.135389,-2.47311 11.52,-2.46783 4.362323,0.004 4.81329,0.0645 7.53568,1.00627 3.490068,1.20733 6.084738,2.69304 8.525768,4.88187 4.81858,4.32073 7.69204,11.78637 7.2031,18.71463 -0.58831,8.33655 -4.76853,14.99651 -11.74752,18.71628 -4.094884,2.18255 -10.84409,3.30117 -15.504574,2.56974 z m 7.301901,-11.69946 c 2.181117,-0.74318 4.702746,-3.17776 5.834183,-5.63278 0.84501,-1.83351 0.92801,-2.32756 0.92966,-5.53327 0.002,-3.16841 -0.0856,-3.70653 -0.87308,-5.38749 -1.347476,-2.87627 -2.586305,-4.22469 -4.950792,-5.38872 -1.773126,-0.87291 -2.472009,-1.03939 -4.381958,-1.04387 -2.77697,-0.006 -4.218848,0.46702 -6.206746,2.03836 -2.876252,2.27355 -4.487686,6.65722 -4.106883,11.17216 0.402224,4.76887 2.957168,8.44801 6.824618,9.8275 1.667302,0.59472 5.108937,0.56895 6.930998,-0.0519 z m 94.765643,11.57645 c -4.49401,-0.88905 -6.93399,-2.14144 -9.37452,-4.81177 -0.89084,-0.97473 -1.9892,-2.55327 -2.4408,-3.50787 -1.5948,-3.37112 -1.77483,-4.96753 -1.77995,-15.78286 l -0.005,-10 h -4 -4 v -5.44 -5.44 h 4 4 v -7.52 -7.52 h 6.3941 6.3941 l 0.0859,7.44 0.0859,7.44 6.32,0.0868 6.32,0.0868 v 5.43323 5.43324 h -6.4 -6.4 l 0.0139,8.4 c 0.0148,8.94404 0.18629,10.69433 1.17885,12.03461 1.29137,1.74378 2.52808,2.28662 5.17454,2.27134 1.33797,-0.008 3.00867,-0.22745 3.71267,-0.48829 0.704,-0.26083 1.40883,-0.50651 1.56629,-0.54595 0.15745,-0.0394 1.0107,2.19796 1.8961,4.97199 1.88136,5.89449 2.01934,5.45932 -2.15751,6.80434 -3.1616,1.01809 -7.41683,1.28119 -10.58488,0.65446 z m 37.44,0.13124 c -9.74641,-1.48259 -16.87064,-8.04035 -18.8963,-17.39377 -0.868,-4.00798 -0.54,-9.70528 0.78427,-13.62262 2.46217,-7.28341 7.14279,-11.8719 14.43203,-14.14795 2.05608,-0.64201 3.04197,-0.74651 6.88,-0.7292 3.96757,0.0179 4.77565,0.11814 7.06482,0.87649 8.75728,2.90109 13.57518,11.12599 13.57518,23.17492 v 2.32839 h -15.04 -15.04 l 0.003,1.04 c 0.004,1.41878 1.2893,4.0226 2.59769,5.26361 2.054,1.94822 3.81662,2.49808 7.95918,2.48293 3.27052,-0.012 3.8803,-0.10596 5.48002,-0.84471 0.99,-0.45718 2.37546,-1.35113 3.07878,-1.98654 0.70353,-0.63541 1.37539,-1.15529 1.49324,-1.15529 0.11785,0 1.96607,1.332 4.10717,2.96 2.14109,1.628 4.04322,3.07212 4.22695,3.20916 0.20454,0.15257 -0.61421,1.15474 -2.11195,2.58507 -2.81275,2.68616 -5.80757,4.32651 -9.73257,5.33081 -2.94088,0.75249 -8.08875,1.05047 -10.86144,0.6287 z m 10.87397,-28.87374 c -0.55112,-3.37202 -2.55833,-6.09586 -5.15214,-6.99162 -1.9786,-0.68329 -5.16369,-0.53821 -6.92732,0.31555 -1.98767,0.96221 -3.95356,3.23226 -4.55599,5.26089 -0.89859,3.02588 -1.63842,2.77518 8.18961,2.77518 h 8.66813 z m 39.14308,28.87616 c -2.67978,-0.42467 -6.54219,-1.80231 -8.73398,-3.11525 -2.98199,-1.78629 -6.19399,-5.26709 -7.78419,-8.43559 -1.88896,-3.76383 -2.61888,-6.92034 -2.61888,-11.32532 0,-6.8579 2.11837,-12.25467 6.53318,-16.64391 4.27736,-4.2526 8.80626,-6.1758 15.2349,-6.46952 4.26724,-0.19496 7.62057,0.46395 11.14383,2.18969 2.20489,1.07999 5.92515,4.36836 7.45083,6.58586 l 0.93837,1.36387 -4.33165,3.20701 c -2.38241,1.76385 -4.45075,3.207 -4.59631,3.207 -0.14556,0 -0.71088,-0.62136 -1.25627,-1.38079 -3.28546,-4.57493 -10.15712,-5.41393 -14.32119,-1.74857 -0.85196,0.74993 -1.82831,2.08835 -2.46117,3.37386 -0.94937,1.92844 -1.06016,2.45713 -1.1666,5.56705 -0.13902,4.06157 0.37211,6.10549 2.17141,8.68309 0.89604,1.28363 1.65404,1.91597 3.30695,2.75869 1.87291,0.9549 2.44648,1.09334 4.52997,1.09334 2.03336,0 2.69035,-0.15006 4.45021,-1.01644 1.89268,-0.93176 3.80798,-2.61646 4.61592,-4.06017 0.2898,-0.51783 0.74916,-0.26987 4.44043,2.39698 2.26445,1.63602 4.25111,3.09733 4.41479,3.24736 0.44384,0.40685 -1.87114,3.58316 -4.0458,5.55112 -2.13343,1.93065 -5.58329,3.77637 -8.4118,4.50045 -2.40934,0.61677 -7.11021,0.84936 -9.50295,0.47019 z m 222.36397,-0.01 c -6.91388,-1.16152 -12.32307,-5.7597 -14.79865,-12.57987 -2.20298,-6.06912 -2.35437,-13.29799 -0.40643,-19.40629 2.787,-8.73942 9.67667,-14.07054 18.18406,-14.07054 4.60461,0 8.39216,1.3843 11.20461,4.09513 l 1.57654,1.51959 0.19002,-1.45209 c 0.10451,-0.79865 0.26419,-1.84809 0.35485,-2.33209 l 0.16483,-0.88 h 5.73459 5.73456 v 22.24 22.24 h -5.73456 -5.73459 l -0.16483,-0.88 c -0.0907,-0.484 -0.25328,-1.55303 -0.36138,-2.37563 l -0.19654,-1.49562 -1.43981,1.43982 c -3.17261,3.17258 -9.11923,4.8092 -14.30727,3.9376 z m 9.13088,-11.52077 c 1.52109,-0.42244 3.61642,-2.01945 4.95885,-3.77952 l 1.04925,-1.37562 v -6.25225 -6.25226 l -1.12995,-1.53931 c -3.63722,-4.95487 -10.65597,-5.45438 -14.54589,-1.0352 -1.74378,1.98101 -2.60448,4.41727 -2.80122,7.92877 -0.33641,6.0045 2.06432,10.69456 6.23642,12.18344 1.44608,0.51605 4.5919,0.57762 6.23254,0.12196 z M 15.816803,-286.81158 v -32.32 h 6.719999 6.72 v 32.32 32.32 h -6.72 -6.719999 z m 108.159997,-1.12 v -33.44 h 6.56 6.56 v 33.44 33.44 h -6.56 -6.56 z m 24.64,11.2 v -22.24 h 6.4 6.4 v 22.24 22.24 h -6.4 -6.4 z m 158.72,-11.2 v -33.44 h 6.4 6.4 v 12.96 c 0,7.128 0.0851,12.96 0.18913,12.96 0.10403,0 0.77714,-0.50331 1.49582,-1.11848 2.56797,-2.19808 6.13806,-3.36152 10.31505,-3.36152 8.21568,0 13.61869,4.29578 15.89798,12.64 0.66304,2.42739 0.7058,3.34321 0.82532,17.68 l 0.12601,15.12 h -6.57197 -6.57196 l -0.0927,-14 c -0.0908,-13.70538 -0.10745,-14.02757 -0.79385,-15.3103 -1.50151,-2.80602 -4.00208,-4.16892 -7.12867,-3.88541 -2.39011,0.21672 -3.96978,1.06362 -6.01237,3.22336 l -1.67779,1.77404 v 14.09915 14.09916 h -6.4 -6.4 z m 52.48,11.2 v -22.24 h 5.74038 5.74042 l 0.19706,1.52 c 0.43113,3.32514 0.32944,3.2451 2.0207,1.59038 2.70669,-2.64819 6.58554,-4.07038 11.10144,-4.07038 4.74928,0 8.58701,1.45658 11.49222,4.36178 2.03479,2.03479 3.39284,4.58555 4.40743,8.27822 0.66889,2.43464 0.70928,3.30041 0.82413,17.68 l 0.1208,15.12 h -6.5696 -6.5696 l -0.0927,-14 c -0.0908,-13.70538 -0.10745,-14.02757 -0.79385,-15.3103 -1.51277,-2.82707 -3.99831,-4.16926 -7.18563,-3.88025 -2.32599,0.21091 -4.1674,1.24495 -6.15616,3.45694 l -1.47704,1.64283 v 14.04539 14.04539 h -6.4 -6.4 z m 52.48,0 v -22.24 h 6.4 6.4 v 22.24 22.24 h -6.4 -6.4 z m 24.32,-11.2 v -33.44 h 6.55789 6.55789 l 0.0821,22.8654 0.0821,22.8654 7.66992,-11.6654 7.66994,-11.6654 h 7.29008 c 4.00954,0 7.29008,0.0673 7.29008,0.14952 0,0.0822 -2.89315,4.06477 -6.42925,8.85007 -3.53609,4.78531 -6.49405,8.86937 -6.57321,9.07571 -0.0792,0.20633 3.1598,6.19579 7.19776,13.30992 l 7.34176,12.93478 -7.08128,0.0863 c -3.89472,0.0475 -7.23866,0.0259 -7.43095,-0.0479 -0.19232,-0.0738 -2.26979,-3.46332 -4.61664,-7.53227 l -4.26697,-7.39809 -2.04848,2.80595 c -1.12666,1.54327 -3.57783,4.92995 -5.44708,7.52595 l -3.39862,4.72 h -5.22352 -5.22352 z m -396.479998,5.74796 v -5.90796 h 1.086293 c 1.741745,0 5.052043,-1.17693 6.364725,-2.2629 0.666057,-0.55102 1.596742,-1.74329 2.068188,-2.64948 0.750029,-1.44167 0.85865,-2.02762 0.868983,-4.68762 0.0105,-2.70205 -0.08479,-3.22316 -0.857171,-4.68762 -1.458359,-2.7651 -4.203642,-4.49575 -8.011018,-5.05023 l -1.52,-0.22137 v -5.78873 -5.78873 l 3.12,0.1927 c 3.605123,0.22266 7.926026,1.37245 10.791395,2.87158 2.756074,1.44195 6.786429,5.56407 8.075802,8.25968 3.584614,7.49414 2.846486,16.85413 -1.817501,23.04712 -3.811357,5.06085 -9.650022,7.79027 -18.009696,8.41905 l -2.16,0.16247 z M 151.6568,-306.29826 c -5.86873,-2.71713 -5.34433,-12.23463 0.77513,-14.06806 1.80839,-0.54181 4.48033,-0.43503 5.96273,0.2383 2.46212,1.11833 4.30214,4.11224 4.30214,7.00006 0,2.89066 -1.94305,5.85484 -4.54972,6.94075 -1.64148,0.68383 -4.89362,0.62818 -6.49028,-0.11105 z m 263.60051,-0.0668 c -2.60035,-1.28716 -3.99776,-3.69901 -3.99945,-6.9029 -0.003,-4.58234 3.02307,-7.47611 7.79606,-7.45664 6.21821,0.0254 9.51936,7.26951 5.67952,12.4632 -1.78058,2.40833 -6.52406,3.35759 -9.47613,1.89634 z"
       id="path177" />
  </g>
</svg>
