<svg class="svg-icon" style="width: 1em; height: 1em;vertical-align: middle;fill: currentColor;overflow: hidden;" viewBox="0 0 1024 1024" version="1.1" xmlns="http://www.w3.org/2000/svg"><path d="M761.6 294.4c-19.2-32-57.6-57.6-96-57.6L364.8 236.8C320 236.8 281.6 262.4 268.8 294.4L230.4 371.2C217.6 396.8 217.6 422.4 224 448c6.4 12.8 19.2 25.6 19.2 38.4l0 217.6c0 38.4 38.4 83.2 83.2 83.2l371.2 0c38.4 0 83.2-44.8 83.2-83.2L780.8 480c0-12.8 12.8-19.2 19.2-38.4 12.8-25.6 6.4-51.2-6.4-76.8L761.6 294.4zM300.8 313.6c12.8-19.2 32-32 64-32l294.4 0c25.6 0 51.2 12.8 64 32L755.2 384 268.8 384 300.8 313.6zM736 697.6c0 19.2-19.2 38.4-38.4 38.4L326.4 736c-19.2 0-38.4-19.2-38.4-38.4l0-192c12.8 6.4 38.4 12.8 64 12.8C384 518.4 409.6 512 435.2 499.2 454.4 512 480 518.4 512 518.4c32 0 57.6-6.4 76.8-25.6 25.6 12.8 51.2 25.6 83.2 25.6 19.2 0 51.2-6.4 64-12.8L736 697.6zM761.6 428.8c-12.8 32-51.2 51.2-89.6 51.2-25.6 0-51.2-6.4-64-25.6L595.2 448 576 460.8C563.2 480 537.6 486.4 512 486.4c-25.6 0-51.2-6.4-64-25.6L435.2 448 422.4 460.8c-19.2 12.8-38.4 25.6-64 25.6-38.4 0-76.8-25.6-89.6-57.6 0-6.4-6.4 0-6.4-19.2L768 409.6C768 428.8 761.6 422.4 761.6 428.8zM512 0C230.4 0 0 230.4 0 512c0 281.6 230.4 512 512 512 281.6 0 512-230.4 512-512C1024 230.4 793.6 0 512 0zM512 985.6c-262.4 0-473.6-211.2-473.6-473.6 0-262.4 211.2-473.6 473.6-473.6 262.4 0 473.6 211.2 473.6 473.6C985.6 774.4 774.4 985.6 512 985.6z"  /></svg>